<svg width="1277.1000000000001" height="955.9000000000001" xmlns="http://www.w3.org/2000/svg" xmlns:xlink="http://www.w3.org/1999/xlink"><line x1="108.5" y1="8.0" x2="108.5" y2="33.0" style="stroke:black; stroke-width:1px;" />
<line x1="108.5" y1="41.0" x2="108.5" y2="66.0" style="stroke:black; stroke-width:1px;" />
<line x1="108.5" y1="74.0" x2="78.75" y2="99.0" style="stroke:black; stroke-width:1px;" />
<line x1="78.75" y1="107.0" x2="33.5" y2="132.0" style="stroke:black; stroke-width:1px;" />
<line x1="33.5" y1="140.0" x2="33.5" y2="165.0" style="stroke:black; stroke-width:1px;" />
<line x1="33.5" y1="173.0" x2="33.5" y2="198.0" style="stroke:black; stroke-width:1px;" />
<line x1="78.75" y1="107.0" x2="124.0" y2="132.0" style="stroke:black; stroke-width:1px;" />
<line x1="124.0" y1="140.0" x2="124.0" y2="165.0" style="stroke:black; stroke-width:1px;" />
<line x1="124.0" y1="173.0" x2="124.0" y2="198.0" style="stroke:black; stroke-width:1px;" />
<line x1="108.5" y1="74.0" x2="138.25" y2="99.0" style="stroke:black; stroke-width:1px;" />
<rect x="95.5" y="0.0" width="26.0" height="16.0" style="fill:orange; stroke:rgb(0,0,0);" rx="1"/>
<text x="97" y="9" style="font-family:sans-serif;font-size:10px;">
prog
</text>
<rect x="29.75" y="99.0" width="98.0" height="16.0" style="fill:orange; stroke:rgb(0,0,0);" rx="1"/>
<text x="31" y="108" style="font-family:sans-serif;font-size:10px;">
variableDeclarators
</text>
<rect x="26.0" y="198.0" width="15.0" height="16.0" style="fill:orange; stroke:rgb(0,0,0);" rx="1"/>
<text x="28" y="207" style="font-family:sans-serif;font-size:10px;">
int
</text>
<rect x="70.0" y="66.0" width="77.0" height="16.0" style="fill:orange; stroke:rgb(0,0,0);" rx="1"/>
<text x="72" y="75" style="font-family:sans-serif;font-size:10px;">
blockStatement
</text>
<rect x="0.0" y="165.0" width="67.0" height="16.0" style="fill:orange; stroke:rgb(0,0,0);" rx="1"/>
<text x="2" y="174" style="font-family:sans-serif;font-size:10px;">
primitiveType
</text>
<rect x="134.75" y="99.0" width="7.0" height="16.0" style="fill:orange; stroke:rgb(0,0,0);" rx="1"/>
<text x="136" y="108" style="font-family:sans-serif;font-size:10px;">
;
</text>
<rect x="9.0" y="132.0" width="49.0" height="16.0" style="fill:orange; stroke:rgb(0,0,0);" rx="1"/>
<text x="11" y="141" style="font-family:sans-serif;font-size:10px;">
typeType
</text>
<rect x="67.0" y="33.0" width="83.0" height="16.0" style="fill:orange; stroke:rgb(0,0,0);" rx="1"/>
<text x="69" y="42" style="font-family:sans-serif;font-size:10px;">
blockStatements
</text>
<rect x="74.0" y="165.0" width="100.0" height="16.0" style="fill:orange; stroke:rgb(0,0,0);" rx="1"/>
<text x="76" y="174" style="font-family:sans-serif;font-size:10px;">
variableDeclaratorId
</text>
<rect x="119.0" y="198.0" width="10.0" height="16.0" style="fill:orange; stroke:rgb(0,0,0);" rx="1"/>
<text x="121" y="207" style="font-family:sans-serif;font-size:10px;">
a
</text>
<rect x="78.0" y="132.0" width="92.0" height="16.0" style="fill:orange; stroke:rgb(0,0,0);" rx="1"/>
<text x="80" y="141" style="font-family:sans-serif;font-size:10px;">
variableDeclarator
</text>
</svg>