<svg width="1175.9" height="770.0000000000001" xmlns="http://www.w3.org/2000/svg" xmlns:xlink="http://www.w3.org/1999/xlink"><line x1="137.375" y1="8.0" x2="137.375" y2="33.0" style="stroke:black; stroke-width:1px;" />
<line x1="137.375" y1="41.0" x2="137.375" y2="66.0" style="stroke:black; stroke-width:1px;" />
<line x1="137.375" y1="74.0" x2="107.625" y2="99.0" style="stroke:black; stroke-width:1px;" />
<line x1="107.625" y1="107.0" x2="33.5" y2="132.0" style="stroke:black; stroke-width:1px;" />
<line x1="33.5" y1="140.0" x2="33.5" y2="165.0" style="stroke:black; stroke-width:1px;" />
<line x1="33.5" y1="173.0" x2="33.5" y2="198.0" style="stroke:black; stroke-width:1px;" />
<line x1="107.625" y1="107.0" x2="181.75" y2="132.0" style="stroke:black; stroke-width:1px;" />
<line x1="181.75" y1="140.0" x2="124.0" y2="165.0" style="stroke:black; stroke-width:1px;" />
<line x1="124.0" y1="173.0" x2="124.0" y2="198.0" style="stroke:black; stroke-width:1px;" />
<line x1="181.75" y1="140.0" x2="186.0" y2="165.0" style="stroke:black; stroke-width:1px;" />
<line x1="181.75" y1="140.0" x2="239.5" y2="165.0" style="stroke:black; stroke-width:1px;" />
<line x1="239.5" y1="173.0" x2="239.5" y2="198.0" style="stroke:black; stroke-width:1px;" />
<line x1="239.5" y1="206.0" x2="239.5" y2="231.0" style="stroke:black; stroke-width:1px;" />
<line x1="239.5" y1="239.0" x2="239.5" y2="264.0" style="stroke:black; stroke-width:1px;" />
<line x1="239.5" y1="272.0" x2="239.5" y2="297.0" style="stroke:black; stroke-width:1px;" />
<line x1="239.5" y1="305.0" x2="239.5" y2="330.0" style="stroke:black; stroke-width:1px;" />
<line x1="137.375" y1="74.0" x2="167.125" y2="99.0" style="stroke:black; stroke-width:1px;" />
<rect x="198.0" y="165.0" width="83.0" height="16.0" style="fill:orange; stroke:rgb(0,0,0);" rx="1"/>
<text x="200" y="174" style="font-family:sans-serif;font-size:10px;">
variableInitializer
</text>
<rect x="181.0" y="165.0" width="10.0" height="16.0" style="fill:orange; stroke:rgb(0,0,0);" rx="1"/>
<text x="183" y="174" style="font-family:sans-serif;font-size:10px;">
=
</text>
<rect x="74.0" y="165.0" width="100.0" height="16.0" style="fill:orange; stroke:rgb(0,0,0);" rx="1"/>
<text x="76" y="174" style="font-family:sans-serif;font-size:10px;">
variableDeclaratorId
</text>
<rect x="124.375" y="0.0" width="26.0" height="16.0" style="fill:orange; stroke:rgb(0,0,0);" rx="1"/>
<text x="126" y="9" style="font-family:sans-serif;font-size:10px;">
prog
</text>
<rect x="119.0" y="198.0" width="10.0" height="16.0" style="fill:orange; stroke:rgb(0,0,0);" rx="1"/>
<text x="121" y="207" style="font-family:sans-serif;font-size:10px;">
a
</text>
<rect x="206.5" y="297.0" width="66.0" height="16.0" style="fill:orange; stroke:rgb(0,0,0);" rx="1"/>
<text x="208" y="306" style="font-family:sans-serif;font-size:10px;">
integerLiteral
</text>
<rect x="231.5" y="330.0" width="16.0" height="16.0" style="fill:orange; stroke:rgb(0,0,0);" rx="1"/>
<text x="233" y="339" style="font-family:sans-serif;font-size:10px;">
10
</text>
<rect x="163.625" y="99.0" width="7.0" height="16.0" style="fill:orange; stroke:rgb(0,0,0);" rx="1"/>
<text x="165" y="108" style="font-family:sans-serif;font-size:10px;">
;
</text>
<rect x="210.5" y="198.0" width="58.0" height="16.0" style="fill:orange; stroke:rgb(0,0,0);" rx="1"/>
<text x="212" y="207" style="font-family:sans-serif;font-size:10px;">
expression
</text>
<rect x="0.0" y="165.0" width="67.0" height="16.0" style="fill:orange; stroke:rgb(0,0,0);" rx="1"/>
<text x="2" y="174" style="font-family:sans-serif;font-size:10px;">
primitiveType
</text>
<rect x="135.75" y="132.0" width="92.0" height="16.0" style="fill:orange; stroke:rgb(0,0,0);" rx="1"/>
<text x="137" y="141" style="font-family:sans-serif;font-size:10px;">
variableDeclarator
</text>
<rect x="9.0" y="132.0" width="49.0" height="16.0" style="fill:orange; stroke:rgb(0,0,0);" rx="1"/>
<text x="11" y="141" style="font-family:sans-serif;font-size:10px;">
typeType
</text>
<rect x="98.875" y="66.0" width="77.0" height="16.0" style="fill:orange; stroke:rgb(0,0,0);" rx="1"/>
<text x="100" y="75" style="font-family:sans-serif;font-size:10px;">
blockStatement
</text>
<rect x="95.875" y="33.0" width="83.0" height="16.0" style="fill:orange; stroke:rgb(0,0,0);" rx="1"/>
<text x="97" y="42" style="font-family:sans-serif;font-size:10px;">
blockStatements
</text>
<rect x="219.5" y="231.0" width="40.0" height="16.0" style="fill:orange; stroke:rgb(0,0,0);" rx="1"/>
<text x="221" y="240" style="font-family:sans-serif;font-size:10px;">
primary
</text>
<rect x="26.0" y="198.0" width="15.0" height="16.0" style="fill:orange; stroke:rgb(0,0,0);" rx="1"/>
<text x="28" y="207" style="font-family:sans-serif;font-size:10px;">
int
</text>
<rect x="58.625" y="99.0" width="98.0" height="16.0" style="fill:orange; stroke:rgb(0,0,0);" rx="1"/>
<text x="60" y="108" style="font-family:sans-serif;font-size:10px;">
variableDeclarators
</text>
<rect x="225.0" y="264.0" width="29.0" height="16.0" style="fill:orange; stroke:rgb(0,0,0);" rx="1"/>
<text x="227" y="273" style="font-family:sans-serif;font-size:10px;">
literal
</text>
</svg>